<svg xmlns="http://www.w3.org/2000/svg" width="720" viewBox="0 0 360 220"><rect width="360" height="220" fill="#ffffff"/><style>
text{font-family:ui-monospace,monospace}
.plot text.axis,.axis{fill:#5f6870;font-size:12px}
.grid{stroke:#d7dade;stroke-width:1}
.axisLine{stroke:#d7dade;stroke-width:1}
.path{stroke:#345b77;stroke-width:2.5;fill:none;stroke-linejoin:round;stroke-linecap:round}
.estimate{stroke-dasharray:6 4}
.recorded{stroke-dasharray:none}
.current{stroke-dasharray:2 3}
.gapLabel{fill:#5f6870;font-size:11px}
.point{fill:#345b77}
.currentPoint{fill:#ffffff;stroke:#345b77;stroke-width:2}
.crosshair{stroke:#345b77;stroke-width:1;stroke-dasharray:3 3}
.selectedPoint{fill:none;stroke:#345b77;stroke-width:2.5}
</style><g><line class="grid" x1="56" x2="344" y1="16" y2="16"></line><text class="axis" x="48" y="20" text-anchor="end">$40.90</text></g><g><line class="grid" x1="56" x2="344" y1="95" y2="95"></line><text class="axis" x="48" y="99" text-anchor="end">$29.50</text></g><g><line class="grid" x1="56" x2="344" y1="174" y2="174"></line><text class="axis" x="48" y="178" text-anchor="end">$18.10</text></g><line class="axisLine" x1="56" x2="56" y1="16" y2="174"></line><line class="axisLine" x1="56" x2="344" y1="174" y2="174"></line><path class="path recorded" d="M56 160.83 L80 150.44 L104 140.04 L128 129.65 L152 119.25 L176 108.86 L200 98.46 L224 88.07 L248 77.68 L272 67.28 L296 56.89 L320 46.49"></path><path class="path current" d="M320 46.49 L344 29.17"></path><circle class="point" cx="56" cy="160.83333333333334" r="2.5"></circle><circle class="point" cx="320" cy="46.491228070175424" r="2.5"></circle><path class="currentPoint" d="M344 24.166666666666657l5 5-5 5-5-5Z"></path><line class="crosshair" x1="344" x2="344" y1="16" y2="174"></line><circle class="selectedPoint" cx="344" cy="29.166666666666657" r="8"></circle><text class="axis" x="56" y="196">Sept 2026</text><text class="axis" x="344" y="196" text-anchor="end">Sept 2026</text><text class="axis" x="200" y="218" text-anchor="middle">Date (UTC)</text></svg>