<svg xmlns="http://www.w3.org/2000/svg" width="720" viewBox="0 0 360 220"><rect width="360" height="220" fill="#ffffff"/><style>
text{font-family:ui-monospace,monospace}
.plot text.axis,.axis{fill:#5f6870;font-size:12px}
.grid{stroke:#d7dade;stroke-width:1}
.axisLine{stroke:#d7dade;stroke-width:1}
.path{stroke:#345b77;stroke-width:2.5;fill:none;stroke-linejoin:round;stroke-linecap:round}
.estimate{stroke-dasharray:6 4}
.recorded{stroke-dasharray:none}
.current{stroke-dasharray:2 3}
.gapLabel{fill:#5f6870;font-size:11px}
.point{fill:#345b77}
.currentPoint{fill:#ffffff;stroke:#345b77;stroke-width:2}
.crosshair{stroke:#345b77;stroke-width:1;stroke-dasharray:3 3}
.selectedPoint{fill:none;stroke:#345b77;stroke-width:2.5}
</style><g><line class="grid" x1="56" x2="344" y1="16" y2="16"></line><text class="axis" x="48" y="20" text-anchor="end">$40.90</text></g><g><line class="grid" x1="56" x2="344" y1="95" y2="95"></line><text class="axis" x="48" y="99" text-anchor="end">$29.50</text></g><g><line class="grid" x1="56" x2="344" y1="174" y2="174"></line><text class="axis" x="48" y="178" text-anchor="end">$18.10</text></g><line class="axisLine" x1="56" x2="56" y1="16" y2="174"></line><line class="axisLine" x1="56" x2="344" y1="174" y2="174"></line><line class="path recorded" x1="56" y1="160.83333333333334" x2="80" y2="150.43859649122808"></line><line class="path recorded" x1="80" y1="150.43859649122808" x2="104" y2="140.0438596491228"></line><line class="path recorded" x1="104" y1="140.0438596491228" x2="128" y2="129.64912280701753"></line><line class="path recorded" x1="128" y1="129.64912280701753" x2="152" y2="119.25438596491229"></line><line class="path recorded" x1="152" y1="119.25438596491229" x2="176" y2="108.85964912280701"></line><line class="path recorded" x1="176" y1="108.85964912280701" x2="200" y2="98.46491228070175"></line><line class="path recorded" x1="200" y1="98.46491228070175" x2="224" y2="88.0701754385965"></line><line class="path recorded" x1="224" y1="88.0701754385965" x2="248" y2="77.67543859649123"></line><line class="path recorded" x1="248" y1="77.67543859649123" x2="272" y2="67.28070175438597"></line><line class="path recorded" x1="272" y1="67.28070175438597" x2="296" y2="56.885964912280684"></line><line class="path recorded" x1="296" y1="56.885964912280684" x2="320" y2="46.491228070175424"></line><line class="path current" x1="320" y1="46.491228070175424" x2="344" y2="29.166666666666657"></line><circle class="point" cx="56" cy="160.83333333333334" r="2.5"></circle><circle class="point" cx="80" cy="150.43859649122808" r="2.5"></circle><circle class="point" cx="104" cy="140.0438596491228" r="2.5"></circle><circle class="point" cx="128" cy="129.64912280701753" r="2.5"></circle><circle class="point" cx="152" cy="119.25438596491229" r="2.5"></circle><circle class="point" cx="176" cy="108.85964912280701" r="2.5"></circle><circle class="point" cx="200" cy="98.46491228070175" r="2.5"></circle><circle class="point" cx="224" cy="88.0701754385965" r="2.5"></circle><circle class="point" cx="248" cy="77.67543859649123" r="2.5"></circle><circle class="point" cx="272" cy="67.28070175438597" r="2.5"></circle><circle class="point" cx="296" cy="56.885964912280684" r="2.5"></circle><circle class="point" cx="320" cy="46.491228070175424" r="2.5"></circle><path class="currentPoint" d="M344 24.166666666666657l5 5-5 5-5-5Z"></path><line class="crosshair" x1="344" x2="344" y1="16" y2="174"></line><circle class="selectedPoint" cx="344" cy="29.166666666666657" r="8"></circle><text class="axis" x="56" y="196">Sept 2026</text><text class="axis" x="344" y="196" text-anchor="end">Sept 2026</text><text class="axis" x="200" y="218" text-anchor="middle">Date (UTC)</text></svg>